<svg viewBox="0 0 22 23" style="width:1em;height:1em;vertical-align:middle" width="22" height="23" xmlns="http://www.w3.org/2000/svg" fill="currentColor" overflow="hidden"><path d="M.026 22.774V8.77A3.62 3.62 0 0 1 3.64 5.154h.713v-.713A3.62 3.62 0 0 1 7.97.826h14.004V14.83a3.62 3.62 0 0 1-3.615 3.616h-.713v.705a3.626 3.626 0 0 1-3.622 3.622H.026v.001zm13.996-2.038c.874 0 1.585-.711 1.585-1.585V7.193H3.641c-.87 0-1.577.707-1.577 1.577v11.966h11.958zm4.337-4.329c.87 0 1.577-.707 1.577-1.577V2.864H7.97c-.87 0-1.577.707-1.577 1.577v.713h11.253v11.253h.713z" fill-rule="nonzero" fill="#C8C8C8"/></svg>